Coordinates
version=1
nRows=20
nColumns=34
inDegrees=yes

Units are S.I. units (second, meters, Newtons, ...)
If the header above contains a line with 'inDegrees', this indicates whether rotational values are in degrees (yes) or radians (no).

endheader
time	pelvis_tilt	pelvis_list	pelvis_rotation	pelvis_tx	pelvis_ty	pelvis_tz	hip_flexion_r	hip_adduction_r	hip_rotation_r	knee_angle_r	ankle_angle_r	subtalar_angle_r	mtp_angle_r	hip_flexion_l	hip_adduction_l	hip_rotation_l	knee_angle_l	ankle_angle_l	subtalar_angle_l	mtp_angle_l	lumbar_extension	lumbar_bending	lumbar_rotation	arm_flex_r	arm_add_r	arm_rot_r	elbow_flex_r	pro_sup_r	arm_flex_l	arm_add_l	arm_rot_l	elbow_flex_l	pro_sup_l
      0.00000000	     -7.94863042	     -4.41916765	    177.38530880	      1.98828814	      1.02460656	     -0.56064115	     19.98027121	      0.46121549	      3.23789369	     25.91449632	     -3.27226197	    -13.72234135	      0.00000000	      6.65290463	      8.92055393	     -0.93525791	    107.29175546	    -13.53481218	    -30.14853855	      0.00000000	    -22.64921044	     -1.70883735	     -6.49300489	    -24.36037846	    -18.17636486	    -10.90689035	    114.84133134	    107.43973618	     -4.49515919	    -26.64581648	     43.63904469	    111.02129024	     77.94044396
      0.00833330	     -6.50135035	     -3.99437839	    177.15365656	      1.98848813	      1.02166172	     -0.56211568	     21.95533718	      1.63935667	      4.39149918	     29.23624853	     -1.36019579	    -15.70162766	      0.00000000	      6.57239769	      6.10200180	     -2.23879475	    107.75035831	    -14.13736438	    -24.00714690	      0.00000000	    -21.42372490	     -0.17123357	     -7.76564821	    -22.10827443	    -18.24895454	     -8.19898339	    113.84384724	    105.56421502	     -8.73616740	    -26.33215058	     40.48898889	    108.10258377	     78.91919459
      0.01666670	     -6.31266042	     -4.07321806	    177.01048473	      1.99125947	      1.01534131	     -0.56306086	     21.56981325	      2.37922504	      3.91431105	     32.01718379	      0.53084087	    -17.35857618	      0.00000000	     10.10989243	      5.74825747	     -2.68098054	    111.12832780	    -12.73299125	    -23.81376419	      0.00000000	    -21.31647209	     -0.29058217	     -6.25252498	    -20.69495003	    -18.37926523	     -7.56212953	    113.04049252	    104.80100185	     -9.31921062	    -26.64411897	     39.15722444	    105.54687749	     78.98567020
      0.02500000	     -5.67205588	     -3.50234872	    176.72600887	      1.99577846	      1.00403969	     -0.56437813	     22.66305580	      3.42302470	      4.65667092	     35.81085992	      2.50612368	    -18.93869934	      0.00000000	     14.68018351	      4.50138987	     -2.55708251	    115.46492089	     -7.38844785	    -23.30574190	      0.00000000	    -21.52893425	      0.41865903	     -6.72792648	    -15.67348631	    -20.05857785	     -3.99573266	    110.79119679	     99.35866340	    -13.29849307	    -26.06042594	     32.79721130	    104.26048336	     80.98033567
      0.03333330	     -5.62786453	     -2.76057140	    176.82044420	      2.00127540	      0.99760934	     -0.56485756	     22.51637839	      4.71223627	      5.18676122	     39.21773101	      5.12656780	    -19.80177275	      0.00000000	     18.36673250	      3.32674579	     -1.67946545	    119.01749815	     -1.16264456	    -19.74964482	      0.00000000	    -22.91316085	      1.47754412	     -4.61556368	    -13.07156970	    -20.15524969	     -4.68660612	    110.35812165	     98.93378511	    -12.83719801	    -25.97073860	     30.58253322	    100.77143859	     81.31972693
      0.04166670	     -5.06351312	     -2.05599602	    176.63028417	      2.00686211	      0.99590669	     -0.56551110	     22.28177106	      5.67012273	      5.31415669	     41.48821074	      6.21657739	    -20.42996550	      0.00000000	     22.71440886	      2.08536894	     -1.17182275	    120.88818501	      3.53926812	    -16.82137232	      0.00000000	    -23.55955773	      2.19659817	     -4.16439578	     -7.71018480	    -20.88745993	     -1.84595718	    107.60755146	     97.24889453	    -15.04611253	    -25.16079945	     25.04440234	     98.91859320	     85.50930622
      0.05000000	     -5.07529530	     -1.56514867	    176.24975835	      2.01277529	      0.99452332	     -0.56643698	     21.36964579	      6.43432258	      5.73297103	     43.41306339	      8.80932872	    -20.12279487	      0.00000000	     25.98990401	      1.07792768	     -0.91966377	    121.54177902	      7.05963441	    -15.59844883	      0.00000000	    -25.22637550	      2.66717287	     -1.40254236	     -4.40527132	    -21.15246166	     -2.07452962	    106.64315084	     97.09135177	    -14.56758913	    -25.17608198	     22.71738590	     96.36212016	     85.97883050
      0.05833330	     -4.41210944	     -1.49055678	    176.04724502	      2.01887263	      0.98830850	     -0.56753187	     20.90523121	      6.50962090	      5.61674664	     44.79750504	     10.80004302	    -19.88931036	      0.00000000	     30.19739275	      0.49201927	     -1.01768674	    121.42545402	      8.41605957	    -14.77043665	      0.00000000	    -25.78929019	      2.49489227	     -2.24066239	      2.55452476	    -21.32896677	      2.78965250	    103.92032504	     96.53528644	    -19.29045365	    -24.15234140	     15.12100007	     97.73274576	     90.67976822
      0.06666670	     -3.73387743	     -1.66434142	    175.86927247	      2.02454130	      0.98986017	     -0.56894086	     20.00938251	      6.17468854	      5.43918808	     45.06944749	     12.51550607	    -19.40198584	      0.00000000	     34.04014121	      0.14469771	     -1.47492545	    119.82293245	      8.01579753	    -15.35004577	      0.00000000	    -25.98311326	      2.20890781	     -0.72164275	      6.74247656	    -20.82649685	      4.12583828	    102.61240537	     96.18208835	    -21.05208879	    -24.61612739	     12.71084788	     97.58063396	     92.50734428
      0.07500000	     -3.16042774	     -1.93256029	    175.37381894	      2.02970549	      0.99105334	     -0.57073422	     18.80088677	      5.75549832	      5.49660886	     44.90477432	     12.20096817	    -19.84051202	      0.00000000	     37.28656108	     -0.28559763	     -2.33922926	    117.62305527	      6.15749587	    -16.17848328	      0.00000000	    -26.25339971	      1.64902133	      2.12818404	      9.49162567	    -20.56745363	      4.29049305	    102.65488131	     96.14921871	    -22.15028799	    -25.33651728	     11.65172401	     98.29225045	     92.66716463
      0.08333330	     -2.46402893	     -2.48664304	    175.37838096	      2.03446387	      0.99275885	     -0.57182538	     17.72807895	      4.81956456	      5.00479292	     44.61682140	     13.20079895	    -19.41585163	      0.00000000	     40.52897393	     -0.04130782	     -3.08991150	    114.76105597	      3.10706932	    -18.36867713	      0.00000000	    -26.10605095	      0.85127550	      1.21987673	     15.11805267	    -19.26100045	      8.30084858	    100.24534085	     96.17691199	    -27.09208407	    -24.41572114	      5.80419703	    100.14055293	     93.78251525
      0.09166670	     -1.48319012	     -3.05879698	    175.42064152	      2.03802900	      0.99240138	     -0.57269872	     16.95662298	      3.93952738	      4.74447069	     44.47036036	     13.80512812	    -19.25885594	      0.00000000	     44.01401497	      0.28057495	     -3.73923427	    112.13727938	      0.20825911	    -21.19006731	      0.00000000	    -25.42712055	      0.12603979	      2.93947640	     16.96222696	    -18.68301991	      8.38061014	    100.74582257	     96.14444084	    -28.89488183	    -25.24333512	      4.62449097	    101.48576014	     93.96653884
      0.10000000	     -0.65862321	     -3.32789568	    175.43817565	      2.04016008	      0.99469765	     -0.57340889	     15.87476476	      3.36709691	      4.40490991	     44.23405519	     14.68444240	    -18.40587413	      0.00000000	     46.89538819	      0.42873618	     -4.26672919	    109.05071441	     -2.57734769	    -24.29428195	      0.00000000	    -24.47474397	     -0.26094240	      3.51531366	     18.77111740	    -17.69113217	      9.35654715	    101.39681265	     96.27588641	    -32.01643285	    -24.83611373	      1.59945552	    103.08707721	     94.30594943
      0.10833330	      0.07822292	     -3.60516851	    175.36979880	      2.04120352	      1.00674989	     -0.57441378	     14.04486692	      2.68530069	      4.12933013	     42.68460937	     13.68108480	    -17.85330738	      0.00000000	     48.71711446	      0.48698138	     -5.04381264	    104.22058081	     -4.59765357	    -26.38277218	      0.00000000	    -23.21528007	     -0.57168507	      4.88781326	     19.14221133	    -17.62679179	     10.26458856	    101.86492730	     96.39651186	    -33.31146689	    -25.01953081	      0.63785976	    103.54103178	     94.39151835
      0.11666670	      0.54974304	     -3.86355888	    175.20068884	      2.04073942	      1.01103355	     -0.57509663	     11.53697206	      2.02488546	      4.14128051	     40.50414586	     12.80435074	    -16.37001299	      0.00000000	     50.10274067	      0.61385867	     -5.63211851	     99.54107374	     -6.16618046	    -27.48413407	      0.00000000	    -21.96913675	     -0.86452730	      5.69724583	     18.81694169	    -17.36162590	     11.05686224	    104.61643058	     96.57608636	    -35.18419086	    -24.84783240	     -0.74838125	    104.27831969	     94.46187737
      0.12500000	      0.74378148	     -3.82893236	    174.85005503	      2.03906296	      1.01979435	     -0.57550631	      8.43178410	      1.59602558	      4.13008817	     37.66713279	     11.38516421	    -14.66976990	      0.00000000	     50.51187411	      0.43088509	     -6.13122355	     93.72451628	     -8.74317975	    -26.94370063	      0.00000000	    -20.75420636	     -0.82676200	      6.77791887	     17.77666944	    -17.54108334	     11.58816511	    107.59514172	     96.79341268	    -36.56951748	    -24.30750303	     -1.95166807	    104.58109441	     94.58145725
      0.13333330	      0.84479998	     -3.53742206	    174.47720357	      2.03621033	      1.02784416	     -0.57534034	      5.04465162	      1.38253807	      4.16611029	     34.49337179	     10.21683805	    -12.51613280	      0.00000000	     50.16145832	      0.11461353	     -6.48515813	     86.80458326	    -11.74249969	    -26.12239119	      0.00000000	    -19.49984936	     -0.35337371	      8.21078659	     16.27810600	    -18.07795407	     11.92535888	    110.86982300	     97.02895032	    -37.72738147	    -23.94923845	     -2.64649442	    104.60313083	     94.75715758
      0.14166670	      1.04002593	     -2.57909470	    174.02182914	      2.03215115	      1.02955165	     -0.57469569	      2.04321511	      1.86352945	      4.14132113	     32.20823593	      8.64063459	    -10.62334091	      0.00000000	     49.81916816	     -0.77648549	     -6.45664211	     79.99138321	    -12.43329708	    -26.22189134	      0.00000000	    -18.25941415	      0.82483208	     10.35132424	     13.99536725	    -18.84811523	     11.48584059	    114.42926795	     97.35052443	    -38.82613849	    -23.94712688	     -2.57914491	    104.79634145	     95.17226244
      0.15000000	      1.00276277	     -1.57027509	    173.65427319	      2.02787250	      1.03705215	     -0.57430113	     -1.16824923	      2.40269207	      4.38539264	     29.91617541	      5.22286779	     -9.49259712	      0.00000000	     49.11475621	     -1.63033449	     -6.42882018	     73.22127319	     -9.87422522	    -26.84334393	      0.00000000	    -17.26057351	      2.23543198	     12.73136822	     11.37213475	    -19.74295248	     10.67357637	    116.71254705	     97.76065561	    -39.45816885	    -24.54829396	     -2.02765979	    104.87328081	     95.72764558
      0.15833330	      1.14629872	     -0.56300062	    173.57952269	      2.02406250	      1.04191686	     -0.57385330	     -4.04573759	      2.90993617	      4.31721791	     27.78101286	      2.49331945	     -8.15000090	      0.00000000	     48.76342873	     -2.43272987	     -6.30744296	     66.80010305	     -8.19540032	    -27.35685407	      0.00000000	    -15.98184316	      3.71112698	     14.16794082	      9.93238009	    -20.55213816	     11.03252255	    117.14137108	     97.86131861	    -40.86842164	    -24.69278532	     -2.43513202	    105.23771670	     95.78574804
